<?xml version="1.0" standalone="no"?>
<!DOCTYPE svg PUBLIC "-//W3C//DTD SVG 20010904//EN"
 "http://www.w3.org/TR/2001/REC-SVG-20010904/DTD/svg10.dtd">
<svg version="1.0" xmlns="http://www.w3.org/2000/svg"
 width="630.000000pt" height="1280.000000pt" viewBox="0 0 630.000000 1280.000000"
 preserveAspectRatio="xMidYMid meet">
<metadata>
Created by potrace 1.15, written by Peter Selinger 2001-2017
</metadata>
<g transform="translate(0.000000,1280.000000) scale(0.100000,-0.100000)"
fill="#000000" stroke="none">
<path d="M2420 12550 c-20 -20 -22 -30 -24 -152 0 -37 -5 -71 -11 -77 -7 -7
-27 5 -62 33 -58 48 -97 63 -119 45 -24 -20 -16 -33 56 -94 39 -33 70 -61 70
-63 0 -2 -16 -1 -35 2 -64 12 -98 -30 -56 -68 21 -19 142 -56 183 -56 15 0 30
5 34 11 4 7 23 -6 50 -32 l44 -43 -25 -13 c-16 -9 -25 -22 -25 -38 0 -22 -3
-24 -29 -19 -23 5 -32 2 -40 -15 -11 -20 -14 -20 -47 -6 -20 8 -51 28 -68 43
-63 55 -122 65 -133 22 -3 -11 -13 -20 -23 -20 -17 0 -17 2 -4 29 18 37 10 75
-22 100 -13 10 -27 34 -30 52 -10 50 -22 69 -44 69 -11 0 -20 -3 -20 -8 0 -4
-14 -25 -31 -45 l-32 -38 -28 27 c-24 23 -31 25 -44 14 -21 -17 -19 -31 10
-74 31 -46 31 -56 1 -56 -53 0 -43 -37 17 -69 23 -12 58 -31 77 -42 19 -10 54
-19 78 -19 50 0 200 -36 220 -53 8 -6 39 -24 70 -39 l57 -29 -87 6 c-59 3 -97
11 -120 24 -53 31 -137 52 -159 40 -22 -11 -24 -30 -7 -47 9 -9 3 -15 -25 -27
-20 -8 -45 -15 -56 -15 -11 0 -55 -11 -98 -24 -43 -14 -87 -26 -99 -28 -24 -3
-54 18 -54 38 0 24 -37 35 -97 28 -61 -7 -83 -22 -83 -60 0 -18 -7 -22 -52
-28 -64 -9 -106 -30 -120 -62 -16 -34 0 -48 36 -34 15 5 51 10 81 10 l53 0 -4
-55 c-5 -63 -4 -63 72 -40 27 8 50 15 51 15 2 0 0 -20 -3 -44 -9 -62 11 -70
54 -20 54 61 72 96 72 137 0 35 3 40 43 57 51 24 76 25 113 5 41 -21 52 -19
114 20 30 19 57 35 60 35 10 0 30 -48 30 -69 0 -11 -7 -21 -15 -25 -24 -9 -18
-45 10 -58 14 -6 25 -14 25 -17 0 -18 -72 -61 -102 -61 -19 0 -39 -5 -46 -12
-16 -16 -15 -93 1 -106 24 -20 61 -23 82 -7 18 14 19 16 3 25 -28 17 0 55 63
85 50 24 63 27 119 20 l63 -7 -38 -32 c-34 -29 -37 -34 -26 -54 11 -20 9 -23
-16 -33 -15 -6 -41 -13 -58 -16 -16 -3 -65 -16 -108 -29 -99 -31 -125 -31
-136 -1 -17 43 -35 50 -108 41 -68 -9 -68 -9 -73 -44 -5 -34 -7 -35 -59 -42
-62 -9 -105 -32 -120 -64 -12 -28 5 -45 34 -33 11 4 49 8 84 8 56 1 62 -1 51
-14 -10 -11 -10 -19 -2 -27 7 -7 7 -17 0 -34 -15 -33 -5 -39 44 -25 24 7 51
15 61 18 17 4 18 0 12 -40 -6 -36 -4 -45 9 -50 10 -4 23 2 34 15 9 11 29 35
44 53 32 38 48 76 48 114 0 22 7 31 28 40 61 25 88 29 107 15 31 -23 80 -16
136 19 l52 32 149 1 c165 0 214 -10 86 -19 -97 -6 -186 -31 -195 -54 -9 -24
11 -47 46 -53 l32 -5 -68 -50 c-48 -35 -78 -50 -102 -51 -40 -1 -61 -25 -61
-67 0 -51 16 -67 65 -67 34 0 45 4 45 15 0 9 -7 18 -15 21 -12 5 -12 9 2 31
30 46 176 106 236 96 l38 -6 -36 -37 c-64 -65 -28 -102 57 -59 24 12 64 36 90
55 26 18 69 44 97 58 28 14 55 35 62 47 10 19 17 21 77 16 227 -19 326 -42
335 -78 7 -25 -29 -41 -72 -33 -35 7 -71 -10 -71 -35 0 -12 -9 -20 -27 -24
-208 -39 -295 -68 -301 -101 -4 -17 1 -18 55 -11 l58 7 -31 -34 c-46 -48 -87
-124 -80 -146 10 -31 39 -51 84 -58 34 -5 43 -3 48 11 5 11 1 22 -9 30 -25 18
-21 35 18 84 19 24 35 50 35 57 0 8 21 15 58 19 31 3 74 12 96 20 21 8 43 12
48 9 5 -3 6 -24 3 -45 -8 -44 -13 -41 85 -39 65 2 128 21 142 43 4 7 8 24 8
40 0 23 4 27 29 27 l29 0 -14 -37 c-7 -21 -13 -46 -14 -55 0 -9 -12 -23 -27
-30 -34 -16 -39 -54 -8 -51 11 2 35 0 54 -3 26 -4 31 -8 20 -15 -8 -5 -23 -9
-35 -9 -11 0 -29 -7 -40 -15 -19 -15 -18 -16 8 -38 l27 -22 -40 -29 c-63 -48
-51 -68 35 -54 27 4 52 6 54 4 2 -2 -3 -14 -10 -25 -10 -16 -10 -25 -2 -39 14
-21 103 -25 152 -6 26 11 32 18 32 43 0 29 2 31 38 31 20 0 54 5 76 11 34 9
41 8 60 -10 l20 -21 -23 0 c-57 0 -123 -60 -145 -134 -6 -16 -11 -14 -46 18
-64 58 -94 44 -45 -20 19 -24 24 -40 19 -59 -5 -22 -3 -25 19 -25 14 0 27 -7
31 -15 4 -12 -4 -15 -39 -15 -41 0 -45 -2 -45 -24 0 -49 132 -134 166 -106 13
11 26 -5 63 -77 19 -38 19 -43 5 -43 -11 0 -14 -5 -10 -16 5 -14 1 -16 -23
-11 -33 7 -67 -13 -59 -34 7 -17 141 -99 162 -99 14 0 31 -29 22 -37 -2 -3
-17 5 -33 17 -39 28 -67 18 -59 -21 6 -31 -5 -31 -52 -1 -35 23 -50 1 -25 -35
35 -49 37 -70 8 -77 -27 -7 -31 -17 -14 -47 7 -15 7 -24 -1 -34 -19 -22 -3
-49 59 -103 41 -36 60 -61 65 -83 3 -18 4 -34 2 -37 -3 -2 -22 10 -43 27 -21
17 -46 31 -55 31 -28 0 -22 -42 13 -86 22 -27 28 -45 24 -62 -4 -17 2 -31 25
-53 36 -36 39 -76 12 -137 -17 -37 -19 -39 -30 -21 -18 28 -33 24 -69 -18 -17
-21 -33 -36 -36 -33 -3 3 2 32 11 64 18 66 10 91 -29 91 -23 0 -24 3 -24 75
-1 96 -15 244 -25 260 -17 27 -40 2 -40 -44 0 -24 -3 -51 -6 -60 -5 -14 -8
-14 -29 0 -14 9 -33 12 -48 9 -14 -4 -28 -2 -31 4 -4 6 -16 11 -28 11 -15 0
-18 -4 -13 -17 20 -50 34 -122 29 -153 -5 -29 -1 -42 19 -66 14 -16 29 -47 33
-69 l7 -38 -34 23 c-19 13 -47 35 -63 48 -37 30 -71 43 -91 36 -29 -12 -14
-43 46 -95 157 -139 157 -139 164 -201 4 -39 3 -58 -4 -58 -6 0 -11 5 -11 10
0 21 -147 160 -169 160 -47 0 -31 -59 32 -122 47 -46 118 -103 140 -111 18 -7
20 -20 18 -147 -1 -82 -17 -213 -32 -273 -12 -44 -56 -70 -71 -42 -23 40 -81
-4 -119 -90 -12 -27 -24 -45 -26 -38 -2 6 3 75 11 152 15 130 27 176 67 241 5
8 19 32 31 52 28 46 38 48 38 7 0 -17 5 -39 11 -50 8 -16 4 -27 -23 -58 -70
-82 -96 -161 -54 -161 28 0 82 58 115 124 31 60 33 69 26 128 -10 87 -20 108
-49 108 -15 0 -25 7 -29 20 -6 24 -34 26 -59 3 -18 -16 -18 -14 -16 43 4 78
-19 81 -47 7 -13 -34 -29 -56 -45 -64 -14 -6 -32 -15 -40 -19 -22 -10 -25 -92
-5 -129 8 -17 20 -43 26 -58 8 -23 8 -26 -2 -15 -18 17 -56 15 -63 -4 -13 -34
-5 -134 17 -206 22 -75 22 -77 7 -244 -11 -127 -19 -175 -32 -194 -10 -13 -18
-29 -18 -35 0 -9 -59 -55 -71 -55 -2 0 -4 98 -4 218 0 223 -5 272 -29 272 -21
0 -26 -23 -26 -115 0 -46 -3 -91 -6 -100 -6 -14 -8 -14 -25 1 -11 9 -19 30
-19 46 0 64 -60 120 -76 71 -3 -10 -10 -28 -16 -40 -6 -12 -8 -32 -5 -45 5
-17 1 -27 -13 -36 -45 -28 -17 -87 83 -177 55 -49 67 -66 67 -91 0 -49 -10
-46 -38 8 -30 56 -51 74 -76 65 -27 -10 -20 -72 16 -138 27 -52 30 -63 19 -86
-14 -31 -7 -41 19 -25 30 19 40 15 40 -17 0 -24 -3 -28 -20 -24 -15 4 -20 0
-20 -16 0 -17 5 -22 23 -19 20 3 22 -1 23 -48 1 -47 -6 -65 -81 -200 -46 -82
-104 -182 -130 -222 -70 -110 -170 -310 -200 -404 -15 -46 -41 -117 -58 -158
-46 -118 -59 -183 -58 -312 1 -177 30 -329 90 -484 28 -71 59 -142 67 -159 9
-16 28 -52 42 -80 14 -27 54 -93 89 -146 34 -52 69 -113 77 -135 15 -44 104
-207 145 -269 15 -22 57 -82 94 -134 55 -80 70 -109 92 -192 l27 -97 -37 -89
c-39 -91 -47 -119 -89 -288 -34 -135 -47 -258 -55 -525 l-7 -225 -83 -210
c-46 -115 -86 -216 -88 -222 -3 -7 -9 -13 -13 -13 -7 0 -43 76 -70 150 -7 19
-56 125 -108 235 -52 110 -111 245 -132 300 -21 55 -47 122 -59 148 -12 27
-21 51 -21 53 0 2 20 -11 45 -30 78 -60 219 -101 264 -77 27 15 27 38 -1 47
l-21 6 24 14 c13 7 43 13 65 14 74 0 87 53 17 65 -70 12 -75 15 -68 38 4 12 8
47 11 78 3 47 0 60 -16 74 -20 18 -20 18 1 41 32 34 22 66 -25 79 -48 14 -67
46 -44 73 47 53 44 92 -6 92 -42 0 -100 -37 -142 -90 -39 -49 -41 -43 -18 70
18 88 14 115 -15 107 -13 -3 -21 1 -24 14 -15 57 -83 12 -117 -78 -11 -30 -21
-79 -21 -111 -1 -51 -15 -132 -18 -107 -8 64 -65 435 -73 480 -6 35 -13 339
-18 725 -7 617 -9 671 -28 755 -11 50 -28 144 -37 210 -9 66 -31 210 -48 320
l-32 200 -1 725 c-1 399 0 714 3 700 10 -59 27 -91 64 -124 34 -32 45 -36 92
-36 28 1 70 8 92 17 22 8 83 30 136 48 53 18 106 38 117 44 50 27 52 91 4 91
-26 0 -27 1 -26 60 0 34 6 66 12 72 17 17 15 55 -4 62 -9 3 -37 6 -64 6 -39 0
-50 4 -63 24 -15 22 -15 26 3 49 44 56 9 91 -67 67 -112 -37 -165 -88 -183
-177 -15 -76 -21 -90 -14 -31 3 26 23 98 45 160 49 136 50 142 23 146 -27 4
-89 -64 -119 -132 -13 -28 -31 -89 -39 -135 -18 -96 -26 -112 -26 -55 0 21
-12 93 -25 159 -14 66 -32 158 -41 205 -33 187 -68 319 -113 434 -93 232 -174
422 -233 546 -52 109 -59 130 -53 165 3 22 14 49 24 60 61 68 51 191 -21 279
-32 38 -51 27 -46 -25 2 -21 -1 -39 -5 -39 -4 0 -22 21 -40 47 -25 38 -44 52
-86 69 -30 12 -58 29 -63 38 -11 19 -49 21 -66 4 -19 -19 -14 -73 8 -93 11
-10 20 -27 20 -37 0 -10 7 -32 15 -48 18 -35 18 -35 -28 -15 -44 18 -118 20
-135 3 -18 -18 -14 -52 9 -82 16 -20 19 -30 10 -39 -6 -6 -11 -19 -11 -29 0
-24 -21 -23 -105 7 -64 23 -71 23 -93 9 -17 -11 -21 -21 -16 -37 10 -36 32
-64 71 -94 20 -15 56 -47 81 -70 25 -23 67 -54 95 -69 44 -24 56 -26 116 -21
46 5 87 17 136 41 39 19 73 32 76 28 9 -9 159 -364 159 -374 0 -4 -22 8 -49
27 -27 19 -63 40 -82 47 -29 10 -34 9 -51 -12 -21 -26 -23 -60 -6 -79 11 -12
9 -13 -7 -6 -58 22 -103 27 -157 16 -103 -22 -106 -69 -7 -117 34 -16 73 -37
86 -48 l25 -19 -39 -21 c-55 -31 -57 -62 -4 -84 26 -11 42 -25 46 -40 3 -14
18 -27 37 -34 l31 -11 -33 -16 c-40 -19 -46 -33 -25 -55 13 -13 32 -15 102
-10 77 4 93 9 147 41 34 20 73 48 88 62 15 13 30 22 33 20 10 -11 56 -202 80
-339 15 -80 33 -170 40 -200 26 -106 35 -329 35 -914 l0 -590 -35 60 c-39 65
-98 124 -126 124 -9 0 -27 -9 -40 -20 l-24 -20 35 -30 c40 -34 33 -36 -55 -14
-52 13 -68 14 -80 4 -19 -16 -19 -35 0 -64 15 -22 14 -26 -7 -59 -18 -28 -31
-36 -65 -42 -27 -4 -48 -14 -58 -28 -22 -31 0 -58 69 -81 31 -10 56 -22 56
-26 0 -5 -20 -20 -45 -34 -52 -31 -58 -57 -20 -82 33 -21 32 -30 -5 -43 -30
-10 -49 -36 -35 -49 3 -4 43 -10 88 -14 45 -4 107 -10 137 -13 52 -7 57 -5
102 29 26 20 62 57 80 83 l32 47 8 -29 c13 -49 36 -188 63 -385 15 -102 33
-216 41 -255 24 -113 35 -313 32 -573 l-3 -244 -38 59 c-47 72 -89 102 -155
110 -84 10 -113 -32 -43 -60 61 -25 56 -33 -20 -33 -69 1 -70 1 -104 -39 -19
-22 -34 -48 -35 -57 0 -18 39 -53 71 -63 10 -4 19 -14 19 -24 0 -14 -11 -19
-50 -24 -65 -8 -90 -22 -90 -52 0 -29 13 -38 65 -45 33 -4 42 -11 59 -42 25
-49 13 -63 -66 -77 -33 -6 -66 -16 -74 -22 -19 -16 -17 -49 4 -65 20 -16 109
-18 161 -4 20 5 72 17 116 26 74 15 84 20 133 69 l52 52 0 -101 c0 -129 16
-320 35 -416 8 -41 21 -127 30 -190 27 -199 47 -272 130 -477 32 -76 72 -178
90 -228 18 -49 70 -166 115 -260 45 -93 95 -201 110 -240 15 -38 49 -117 74
-173 l47 -104 -30 -131 c-16 -73 -37 -184 -45 -247 -9 -63 -21 -148 -27 -188
-8 -46 -10 -130 -6 -225 5 -129 10 -166 35 -247 39 -128 118 -289 186 -379 31
-41 59 -83 62 -95 4 -12 30 -70 59 -131 52 -109 105 -189 195 -295 25 -30 57
-71 70 -90 41 -60 163 -160 196 -160 20 0 67 48 59 60 -4 6 -13 7 -23 1 -29
-16 -79 44 -111 135 -15 43 -47 116 -70 162 -27 53 -40 90 -36 103 5 13 2 19
-10 19 -20 0 -91 146 -130 265 -36 112 -82 374 -106 609 -19 189 -19 202 -3
275 19 85 91 288 185 518 83 205 164 434 199 566 60 224 75 333 75 547 0 163
-3 195 -23 270 -31 112 -114 320 -158 394 -19 32 -34 66 -32 75 4 22 193 71
383 101 88 13 105 22 98 49 -4 15 9 23 81 45 55 17 89 33 96 46 19 36 11 67
-25 99 -35 30 -38 31 -135 31 -155 0 -225 -21 -346 -103 l-52 -34 50 111 c48
108 88 176 210 359 l59 88 25 -20 c16 -12 32 -17 42 -13 44 19 129 67 185 105
80 55 214 87 284 69 53 -15 84 -15 118 -2 21 8 24 13 16 28 -5 10 -28 24 -50
31 -41 12 -41 12 -35 51 5 32 2 42 -18 63 -52 52 -262 45 -362 -13 -31 -17
-56 -29 -56 -26 0 20 53 132 74 157 15 18 26 43 26 60 0 16 11 55 24 87 13 31
27 68 31 82 19 63 327 853 365 937 19 40 21 42 45 31 22 -10 31 -7 69 20 24
18 47 32 51 32 4 0 33 16 65 35 83 51 190 92 278 109 42 8 85 18 95 21 26 11
20 33 -13 50 -18 9 -30 23 -30 35 0 32 -39 44 -107 32 -32 -5 -60 -8 -62 -6
-8 8 105 51 148 57 24 3 51 13 60 22 15 15 14 18 -8 36 -48 39 -151 20 -302
-56 -43 -22 -140 -117 -176 -171 -29 -46 -24 -16 13 72 120 290 141 372 214
829 33 207 53 263 98 283 16 6 75 55 133 107 57 52 123 108 147 123 77 48 142
102 142 117 0 7 -9 16 -19 20 -11 3 -23 15 -26 25 -3 11 -20 31 -37 45 -25 21
-29 28 -17 36 8 5 17 9 21 9 4 0 28 14 53 31 47 31 57 61 23 67 -9 2 -55 -9
-102 -23 -79 -24 -89 -30 -124 -75 -20 -26 -59 -75 -87 -107 -27 -32 -63 -74
-78 -93 l-28 -35 6 75 c4 41 15 118 25 170 10 52 26 136 35 185 13 75 65 311
81 366 2 8 21 21 42 28 20 8 63 31 95 52 33 21 89 48 125 59 106 32 162 68
179 115 26 71 27 90 1 119 -16 19 -41 32 -78 40 l-55 12 60 43 c33 23 76 52
95 64 47 31 46 51 -4 55 -91 8 -308 -150 -378 -275 -17 -30 -32 -52 -35 -49
-3 2 1 14 7 26 7 12 31 137 54 279 38 231 44 259 68 284 14 15 32 27 41 27 8
0 56 27 106 60 50 33 119 74 153 91 53 27 150 108 220 184 88 97 90 100 61
126 -10 9 -23 24 -29 34 -8 14 -23 18 -65 19 -29 0 -69 -4 -86 -8 -24 -6 -33
-5 -33 4 0 7 -7 18 -16 25 -15 10 -13 14 15 34 37 27 41 58 7 67 -40 10 -201
-74 -265 -138 -54 -53 -111 -158 -126 -230 -4 -18 -15 -62 -26 -97 -11 -36
-19 -93 -19 -133 0 -38 -11 -127 -25 -196 -13 -70 -31 -163 -38 -207 l-13 -80
-7 105 c-7 121 -33 216 -99 366 -46 101 -85 170 -122 212 -20 22 -70 30 -80
13 -3 -5 12 -40 33 -77 56 -98 59 -112 24 -119 -15 -3 -40 -10 -55 -14 -17 -6
-41 -5 -63 1 -26 9 -38 8 -49 -2 -19 -15 -10 -34 26 -58 40 -27 117 -122 147
-182 16 -30 47 -113 70 -185 51 -158 78 -210 110 -209 22 1 23 -1 16 -55 -13
-107 -36 -227 -75 -391 -21 -91 -42 -187 -45 -215 -4 -27 -18 -106 -31 -175
-14 -69 -27 -159 -31 -200 -6 -72 -21 -138 -22 -98 -2 47 -68 224 -117 311
-30 54 -54 100 -54 104 0 3 16 23 35 45 69 76 84 146 30 136 -40 -8 -31 23 20
66 50 41 118 162 113 199 -5 36 -34 31 -76 -12 -38 -39 -40 -40 -46 -19 -3 13
-6 42 -6 65 0 32 4 43 18 47 19 7 101 96 120 133 17 30 15 41 -8 53 -27 14
-53 5 -96 -32 l-34 -30 3 93 c1 55 -3 112 -11 136 -20 66 -67 80 -90 27 -7
-14 -20 -24 -33 -24 -12 0 -36 -16 -54 -35 -26 -27 -34 -31 -39 -19 -13 34 -5
54 37 81 36 25 42 34 42 64 0 22 10 47 28 70 66 86 -4 129 -85 51 l-28 -26 0
107 c0 58 4 108 9 111 5 4 21 38 36 76 25 66 27 100 7 100 -10 0 -44 -32 -85
-78 -33 -38 -42 -35 -51 15 -17 97 -56 130 -56 48 0 -44 -1 -45 -21 -34 -12 6
-38 9 -59 5 -37 -6 -38 -5 -44 32 -13 79 -8 99 25 112 56 24 78 90 29 90 -26
0 -25 9 5 50 16 22 25 47 25 71 0 21 5 50 12 64 8 19 9 28 0 37 -15 15 -69
-27 -102 -81 -14 -22 -28 -41 -31 -41 -4 0 -9 15 -12 33 -4 30 5 56 35 99 17
24 6 31 -26 17 -20 -10 -29 -10 -38 -1 -19 19 -27 14 -35 -19 l-9 -31 -43 61
c-41 60 -42 63 -25 82 26 29 34 23 34 -26 0 -51 16 -59 50 -23 23 25 28 99 8
115 -7 5 -30 10 -51 10 -21 1 -41 4 -44 7 -3 3 6 23 21 45 54 77 13 106 -57
42 -24 -23 -47 -41 -50 -41 -2 0 -12 18 -21 40 -16 39 -15 42 6 73 13 18 31
42 41 54 11 12 16 26 12 32 -9 15 -61 -13 -82 -45 l-17 -26 -18 24 c-10 12
-42 56 -70 96 -47 67 -69 84 -82 64 -3 -5 17 -52 45 -106 27 -54 49 -103 49
-110 0 -13 -67 -72 -85 -74 -6 -1 -10 38 -10 101 0 133 -20 172 -67 130 -17
-15 -18 -14 -18 36 0 62 -12 89 -47 102 l-26 10 36 33 c25 22 37 43 37 60 0
41 -29 32 -96 -28 l-60 -54 4 116 c4 106 2 119 -16 142 -20 24 -20 25 -41 6
-12 -11 -21 -29 -21 -41 0 -13 -8 -33 -18 -46 l-19 -22 -26 57 c-20 43 -31 57
-44 54 -15 -3 -19 -17 -23 -76 -5 -71 -6 -73 -25 -58 -23 18 -55 21 -55 6 0
-6 28 -44 63 -86 93 -115 133 -167 140 -188 6 -16 4 -17 -20 -11 -15 3 -48 21
-73 40 -25 18 -59 36 -77 39 -47 11 -133 138 -133 198 0 60 -31 165 -55 188
-30 28 -50 21 -68 -22 l-13 -33 -50 74 -49 74 -1 91 c-2 145 -22 206 -69 206
-44 0 -60 -73 -30 -143 8 -20 15 -52 15 -72 0 -53 49 -150 123 -244 54 -67 65
-87 57 -102 -6 -10 -10 -31 -10 -48 0 -17 -4 -31 -9 -31 -19 0 -41 32 -41 60
0 31 -25 63 -44 57 -6 -2 -16 -14 -23 -28 -19 -37 -39 -31 -35 11 2 19 8 39
13 44 19 21 9 68 -21 96 -23 21 -30 37 -30 64 0 20 -7 53 -15 73 -14 32 -18
35 -45 29 l-30 -5 0 49 c0 38 -5 55 -22 72 l-21 21 -19 -23 c-11 -14 -18 -38
-18 -68 0 -44 0 -45 -19 -28 -11 10 -18 23 -16 29 3 7 6 30 9 52 2 22 10 52
17 68 16 34 0 72 -36 89 -23 10 -25 17 -25 73 0 47 -4 66 -18 78 -24 22 -28
21 -52 -3z m196 -602 c11 -25 8 -58 -5 -58 -4 0 -16 9 -25 19 -15 16 -15 22
-4 40 16 27 22 26 34 -1z m-86 -108 c12 -8 11 -10 -7 -10 -13 0 -23 5 -23 10
0 13 11 13 30 0z m-115 -79 c40 -9 39 -9 -17 -10 -33 0 -58 3 -58 9 0 12 20
12 75 1z m969 -96 c-5 -19 -9 -23 -15 -14 -4 7 -3 21 3 32 13 26 21 15 12 -18z
m-624 -30 c0 -3 -6 -13 -12 -21 -57 -71 -91 -86 -142 -62 l-31 16 27 12 c15 7
35 24 43 37 13 19 24 23 65 23 28 0 50 -2 50 -5z m236 -40 c42 -12 59 -25 92
-67 l41 -53 -51 -3 c-63 -4 -78 2 -78 28 0 30 -28 80 -45 80 -9 0 -15 -10 -15
-24 0 -42 -17 -38 -44 8 -14 25 -26 48 -26 52 0 9 61 -1 126 -21z m524 -58 c0
-7 -11 -17 -25 -24 -30 -13 -34 1 -9 28 17 19 34 17 34 -4z m-653 -32 l23 -35
-25 -6 c-24 -6 -78 9 -99 27 -7 6 56 47 74 48 3 1 15 -15 27 -34z m-302 -39
c21 -15 49 -29 62 -32 44 -11 23 -24 -39 -24 -47 0 -74 6 -115 27 l-54 27 23
19 c30 23 72 17 123 -17z m895 -40 c0 -5 -11 1 -25 14 -14 13 -25 31 -25 39 0
17 49 -36 50 -53z m-133 23 c41 -26 38 -33 -8 -18 -19 6 -40 13 -47 15 -15 4
-7 24 10 24 6 0 26 -10 45 -21z m-172 -70 c-8 -12 -35 -12 -35 0 0 11 22 20
33 14 4 -2 5 -9 2 -14z m209 -30 c53 -19 93 -49 48 -35 -12 4 -30 2 -42 -4
-16 -9 -20 -8 -20 5 0 8 -11 20 -24 25 -26 9 -44 30 -27 30 6 0 35 -9 65 -21z
m-124 -35 c0 -35 -16 -46 -26 -19 -8 21 4 67 16 60 6 -3 10 -22 10 -41z m-381
-4 c14 0 14 -2 1 -10 -23 -15 -56 -12 -71 7 -13 15 -11 16 20 10 18 -4 41 -7
50 -7z m634 -42 c16 -18 48 -55 70 -83 l40 -50 -32 -3 c-20 -2 -42 4 -61 18
-16 11 -43 26 -60 31 -31 11 -38 27 -20 45 6 6 12 25 13 42 3 40 11 40 50 0z
m361 -36 c18 -56 30 -122 23 -122 -17 0 -37 36 -37 65 0 27 -6 38 -27 52 -16
9 -30 18 -32 20 -7 4 44 41 51 37 3 -2 13 -26 22 -52z m36 -157 c0 -23 -2 -24
-20 -15 -23 12 -26 26 -7 33 23 10 27 7 27 -18z m149 -169 c1 -5 -8 -1 -19 9
-28 25 -60 96 -59 131 1 24 7 16 39 -51 21 -44 39 -84 39 -89z m-363 123 c19
-22 19 -22 -3 -10 -13 6 -23 16 -23 21 0 15 5 12 26 -11z m-101 -9 c7 -12 -12
-12 -40 0 -18 8 -17 9 7 9 15 1 30 -3 33 -9z m319 -59 c18 -19 17 -20 -10 -12
-15 4 -29 12 -32 19 -6 19 23 14 42 -7z m-325 -22 c71 -23 91 -32 91 -39 0 -5
-9 -6 -19 -3 -10 3 -28 0 -39 -6 -18 -9 -21 -8 -24 11 -2 13 -11 24 -23 26
-21 4 -46 22 -30 22 5 0 25 -5 44 -11z m152 -79 c25 -20 20 -24 -18 -14 -13 4
-23 13 -23 20 0 19 14 17 41 -6z m387 -134 c26 -103 24 -117 -13 -76 -16 18
-16 20 -2 20 23 0 21 27 -2 35 -13 4 -22 20 -28 53 -8 46 -9 47 -46 46 -37 -1
-37 -1 -37 40 l0 40 59 -58 c42 -42 62 -70 69 -100z m-220 -12 c-10 -10 -28 6
-28 24 0 15 1 15 17 -1 9 -9 14 -19 11 -23z m1402 -54 c0 -14 -28 -80 -34 -80
-4 0 -3 7 9 63 5 25 25 39 25 17z m-1160 -115 c6 -8 10 -26 8 -42 l-3 -28 -28
42 c-15 24 -27 45 -27 47 0 9 40 -7 50 -19z m209 -115 l0 -25 -24 30 c-23 28
-23 30 -7 48 16 18 17 18 23 -5 4 -12 7 -34 8 -48z m-433 29 c84 -15 94 -18
94 -36 0 -10 -5 -13 -17 -8 -14 6 -126 22 -165 25 -5 0 -8 7 -8 15 0 18 16 19
96 4z m454 -152 c0 -7 5 -63 10 -126 8 -103 7 -117 -10 -150 l-18 -36 -11 28
c-14 37 -14 47 3 47 29 0 36 72 10 108 -15 22 -54 31 -54 11 0 -30 -22 11 -45
82 -27 87 -32 154 -12 162 13 6 127 -107 127 -126z m-220 0 c0 -31 -3 -38 -10
-27 -13 20 -13 83 0 75 6 -3 10 -25 10 -48z m-87 -75 c11 -10 17 -29 17 -54 0
-31 -4 -38 -20 -38 -10 0 -31 -5 -45 -12 -19 -9 -28 -9 -37 0 -7 7 -19 12 -28
12 -13 0 -90 89 -90 105 0 3 16 -2 36 -10 51 -21 101 -19 116 4 12 20 20 19
51 -7z m17 -282 c0 -55 -2 -100 -5 -100 -2 0 -12 11 -21 25 -15 23 -15 33 -3
100 7 41 17 75 21 75 4 0 8 -45 8 -100z m169 54 c13 -17 21 -41 21 -65 0 -21
9 -61 20 -89 11 -28 20 -69 20 -90 0 -33 -3 -40 -20 -40 -24 0 -32 -28 -28
-101 2 -44 6 -54 21 -53 20 2 20 2 6 -29 l-11 -24 -26 26 c-20 20 -27 39 -31
91 -7 71 -15 90 -36 90 -17 0 -45 38 -45 61 0 9 11 28 24 42 40 43 46 107 10
107 -15 0 -19 37 -8 78 9 32 56 30 83 -4z m130 -101 l-1 -48 -8 40 c-7 37 -5
55 6 55 2 0 3 -21 3 -47z m231 20 c0 -15 10 -46 21 -70 19 -40 21 -57 17 -177
-3 -107 -7 -138 -22 -160 -15 -24 -16 -32 -5 -57 7 -19 8 -34 2 -40 -6 -6 -18
13 -34 53 -21 54 -28 63 -51 66 -21 3 -28 -1 -29 -15 -4 -62 16 -115 63 -165
24 -26 28 -38 24 -63 -4 -17 -13 -40 -21 -51 -14 -18 -14 -17 -15 12 0 17 -7
37 -16 44 -21 18 -40 -2 -55 -62 -12 -44 -11 -50 9 -77 23 -31 29 -61 13 -61
-5 0 -12 7 -15 16 -9 23 -37 13 -56 -20 -10 -20 -30 -34 -59 -44 -23 -8 -45
-12 -48 -9 -3 3 4 34 16 69 15 45 22 100 26 193 10 226 11 229 62 287 64 73
78 108 58 154 -15 36 -15 37 20 76 20 21 45 59 57 83 25 51 38 57 38 18z
m-710 -92 c12 -24 13 -31 2 -31 -5 0 -14 11 -20 25 -14 29 2 34 18 6z m1340
14 c0 -9 -30 -65 -34 -65 -3 0 -11 -3 -20 -6 -21 -8 -20 4 4 44 17 27 50 45
50 27z m-1182 -90 c14 -31 16 -101 3 -110 -14 -8 -19 4 -27 73 -7 66 4 82 24
37z m-69 -107 c1 -29 8 -42 33 -61 26 -21 30 -29 22 -45 -21 -44 -94 28 -94
94 0 17 5 46 12 65 12 34 12 34 19 9 4 -14 7 -42 8 -62z m191 -164 c10 -52 -6
-73 -56 -74 -19 0 -31 43 -22 77 8 30 12 32 41 29 26 -3 33 -8 37 -32z m126
-193 c-6 -75 -17 -135 -31 -179 -6 -16 -42 1 -67 32 -23 27 -24 118 -3 136 13
10 15 9 15 -11 0 -39 11 -69 25 -69 19 0 25 24 25 105 0 50 4 75 13 78 25 9
29 -8 23 -92z m-315 -52 c-5 -31 -19 -89 -32 -129 -31 -105 -43 -63 -17 65 31
162 27 150 43 134 12 -11 13 -26 6 -70z m-357 -24 c4 -41 3 -55 -4 -45 -9 13
-15 119 -6 109 2 -2 6 -31 10 -64z m476 -90 c0 -15 -26 -32 -36 -23 -2 3 -2
13 2 22 8 20 34 21 34 1z m320 -164 c-5 -11 -15 -23 -20 -26 -14 -9 -12 19 2
33 19 19 30 14 18 -7z m-360 -15 c0 -7 11 -23 25 -36 14 -13 25 -30 25 -37 0
-8 -28 -44 -62 -81 -35 -37 -75 -83 -90 -102 l-28 -35 22 50 c17 39 22 71 23
140 0 85 8 120 23 111 4 -2 16 0 27 4 23 9 35 4 35 -14z m438 -71 c43 -29 38
-31 -18 -9 -22 9 -37 20 -34 25 8 13 11 12 52 -16z m-775 -15 c-7 -25 -19 -34
-28 -20 -8 13 13 52 25 45 4 -3 6 -14 3 -25z m507 22 c0 -16 -27 -45 -39 -41
-8 3 -7 11 4 27 16 22 35 30 35 14z m-383 -69 c-3 -10 -5 -2 -5 17 0 19 2 27
5 18 2 -10 2 -26 0 -35z m625 -35 c32 -13 58 -25 58 -29 0 -18 -139 -242 -196
-313 -38 -48 -84 -105 -103 -128 -59 -75 -163 -188 -172 -188 -5 0 2 21 16 48
14 26 35 74 48 107 17 46 31 65 60 84 36 23 48 53 27 66 -25 16 1 115 30 115
24 0 127 84 144 118 34 69 -17 69 -90 0 -60 -56 -62 -43 -6 37 53 75 95 117
112 111 8 -2 41 -15 72 -28z m-282 -52 c0 -21 -41 -150 -51 -160 -14 -15 -11
29 7 97 9 34 18 65 20 69 8 13 24 9 24 -6z m420 -28 c27 -45 25 -54 -11 -67
-47 -16 -52 -14 -45 17 8 34 27 82 32 82 3 0 13 -15 24 -32z m-855 -18 c3 -5
-3 -10 -15 -10 -12 0 -18 5 -15 10 3 6 10 10 15 10 5 0 12 -4 15 -10z m318
-102 c-5 -59 -16 -88 -32 -88 -4 0 -7 12 -6 28 0 22 -4 27 -22 26 -28 -1 -29
12 -3 51 17 26 39 42 62 44 3 1 4 -27 1 -61z m657 -45 c37 -42 37 -21 -4 -288
-72 -455 -98 -536 -486 -1500 -99 -246 -143 -359 -201 -520 -47 -130 -59 -146
-59 -84 -1 162 -150 459 -231 459 -26 0 -29 -11 -13 -43 15 -27 15 -31 -3 -49
-19 -18 -20 -18 -45 2 -37 29 -81 36 -98 16 -11 -14 -7 -22 31 -59 75 -72 143
-175 228 -348 l83 -167 -58 -133 c-31 -74 -72 -155 -90 -181 -18 -26 -47 -74
-63 -107 -39 -76 -54 -87 -44 -29 12 65 7 335 -7 402 -21 101 -94 241 -125
241 -17 0 -20 -7 -19 -45 0 -25 13 -76 27 -115 18 -46 26 -89 26 -125 -1 -55
-1 -55 -14 -25 -8 17 -14 44 -15 62 0 27 -21 63 -36 63 -18 0 -48 -26 -60 -53
-8 -18 -20 -39 -26 -48 -9 -13 -9 -33 0 -85 31 -186 43 -267 52 -356 10 -101
24 -175 34 -185 3 -4 -8 -31 -25 -61 -17 -31 -37 -74 -45 -96 -23 -66 -139
-336 -144 -336 -11 0 -60 90 -89 163 -47 118 -60 141 -170 287 -56 74 -113
159 -127 188 -55 116 -100 369 -91 512 9 146 87 407 172 580 71 145 302 551
326 573 10 10 19 23 19 29 0 7 48 84 108 173 103 155 109 161 152 174 25 7 71
15 103 18 41 3 61 10 71 24 16 23 65 39 122 39 50 0 143 27 167 48 21 19 21
30 2 53 -15 15 -14 17 9 23 13 3 37 18 53 33 16 16 50 40 76 55 53 31 65 51
47 73 -18 22 -50 18 -106 -10 -75 -39 -173 -77 -186 -73 -14 5 129 108 149
108 8 0 33 11 56 24 23 14 85 41 137 62 154 59 176 76 144 109 -21 21 -70 19
-123 -5 -24 -11 -45 -19 -47 -17 -2 2 26 32 61 67 61 60 82 100 53 100 -7 0
-35 -18 -63 -40 -27 -22 -53 -40 -56 -40 -3 0 -4 11 -1 25 7 37 -21 42 -67 12
-42 -28 -60 -62 -42 -80 7 -7 18 -7 37 2 15 6 28 10 31 8 2 -3 -49 -53 -113
-111 -64 -59 -118 -105 -121 -102 -2 2 1 23 7 45 13 48 8 61 -25 61 -15 0 -34
-13 -54 -37 -36 -43 -91 -144 -91 -167 0 -8 -14 -23 -31 -31 -64 -34 -51 0 53
140 98 130 137 169 232 235 43 30 97 76 120 102 22 26 49 48 58 48 40 0 118
50 118 76 0 7 22 20 49 29 63 21 133 80 129 109 -5 34 -50 32 -115 -5 -31 -18
-53 -26 -48 -18 23 40 78 99 93 100 9 0 53 13 97 29 44 15 87 28 96 29 10 1
31 -15 49 -36z m-1010 -21 c0 -5 -7 -17 -15 -28 -14 -18 -14 -18 -15 9 0 17 5
27 15 27 8 0 15 -4 15 -8z m366 -89 c-42 -36 -54 -27 -16 12 21 22 36 31 39
24 2 -7 -8 -23 -23 -36z m-266 -52 c0 -54 -4 -82 -14 -90 -11 -9 -14 -1 -19
43 -3 29 -11 63 -19 75 -11 20 -11 24 6 37 39 28 46 19 46 -65z m117 37 c-3
-8 -6 -5 -6 6 -1 11 2 17 5 13 3 -3 4 -12 1 -19z m-455 -153 c-5 -39 -28 -69
-45 -58 -23 14 -59 -10 -79 -53 -34 -79 2 -104 50 -34 47 68 59 46 16 -29 -40
-69 -53 -81 -92 -81 -27 0 -33 3 -28 16 3 9 6 37 6 64 0 30 6 54 15 64 8 8 15
26 15 40 0 17 8 29 26 38 15 7 45 43 68 82 l41 69 6 -39 c4 -21 4 -56 1 -79z
m568 37 c0 -6 -8 -20 -35 -60 -1 -1 -14 4 -28 11 -25 13 -26 15 -9 29 27 24
72 37 72 20z m-250 -132 c-12 -22 -49 -45 -58 -36 -8 9 39 56 55 56 11 0 11
-5 3 -20z m148 -81 c-20 -36 -23 -39 -26 -20 -2 13 4 31 14 42 30 33 36 21 12
-22z m-915 -13 c17 -13 27 -31 25 -41 -2 -13 -10 -8 -36 24 -37 46 -32 52 11
17z m847 -46 c20 -20 19 -20 -58 -121 -42 -55 -98 -133 -124 -173 -94 -144
-96 -146 -128 -146 -30 0 -30 0 -30 58 0 36 6 66 15 78 8 10 15 31 15 47 0 20
7 30 25 37 13 5 41 34 60 64 24 35 45 56 61 59 28 5 29 -1 9 -50 -40 -96 24
-63 76 39 16 31 33 59 39 63 5 3 10 19 10 36 0 34 4 35 30 9z m-153 4 c-3 -3
-12 -4 -19 -1 -8 3 -5 6 6 6 11 1 17 -2 13 -5z m-67 -13 c-68 -21 -80 -22 -80
-6 0 12 12 15 53 14 39 -1 46 -3 27 -8z m-77 -126 c-7 -21 -13 -19 -13 6 0 11
4 18 10 14 5 -3 7 -12 3 -20z m-94 -57 c-1 -117 -18 -250 -33 -267 -9 -10 -16
-23 -16 -29 0 -13 -36 -48 -62 -63 -17 -9 -18 2 -18 176 l0 185 33 14 c17 8
47 15 65 15 30 1 32 -1 31 -31z m-193 -106 c-4 -3 -11 -1 -17 5 -8 8 -7 18 3
34 l13 24 3 -28 c2 -16 1 -31 -2 -35z m-146 38 c13 -9 13 -11 0 -20 -22 -15
-30 -12 -30 10 0 22 8 25 30 10z m118 -109 c12 -11 22 -29 22 -40 0 -19 -3
-18 -30 12 -43 49 -38 65 8 28z m699 -48 c-4 -3 -31 -10 -60 -14 -28 -4 -71
-10 -94 -14 -49 -9 -59 7 -15 23 30 12 179 16 169 5z m-688 -97 c7 -8 11 -32
9 -52 l-3 -38 -31 59 c-22 43 -38 61 -54 63 -49 8 -53 -49 -10 -131 25 -45 29
-65 24 -92 -7 -38 5 -46 27 -19 12 14 14 14 26 -2 7 -10 13 -27 13 -37 0 -16
-3 -17 -15 -7 -16 14 -35 5 -35 -16 0 -20 30 -30 41 -13 6 9 9 -8 9 -48 0 -61
-3 -68 -89 -220 -49 -87 -110 -189 -134 -228 -65 -101 -160 -297 -193 -395
-15 -47 -40 -116 -56 -155 -16 -38 -36 -101 -44 -138 -18 -89 -18 -254 2 -357
8 -45 13 -84 11 -86 -9 -10 -119 252 -142 339 -35 132 -54 295 -45 392 13 136
84 378 157 535 57 121 310 570 333 591 10 8 21 26 25 40 4 13 21 43 37 67 l29
43 48 -40 c27 -22 53 -47 60 -55z m171 -144 c0 -5 -14 -28 -31 -52 l-31 -43
-19 24 c-30 38 -24 54 24 66 59 14 57 14 57 5z m-80 -2864 c50 -108 97 -275
116 -413 25 -176 1 -391 -77 -680 -35 -131 -60 -199 -192 -530 -55 -137 -113
-284 -128 -325 l-29 -75 3 395 c5 454 4 450 98 700 115 307 176 625 167 872
-3 76 -3 138 -1 138 2 0 22 -37 43 -82z m-113 -180 c-4 -119 -13 -197 -32
-287 -31 -149 -91 -366 -111 -401 -13 -22 -14 -11 -9 105 10 214 41 420 87
573 41 138 54 172 65 172 3 0 3 -73 0 -162z m-244 -1408 l-6 -275 -48 144 -47
144 35 91 c19 50 41 110 50 134 8 24 17 41 19 39 2 -2 1 -127 -3 -277z m-106
-233 c87 -249 105 -449 64 -712 -19 -122 -22 -172 -16 -270 l6 -120 -31 48
c-16 26 -45 84 -64 130 -77 187 -94 377 -61 659 17 144 56 358 65 358 3 0 19
-42 37 -93z m169 -1025 c19 -95 45 -208 59 -250 l24 -77 -40 45 c-22 25 -46
56 -54 70 -32 60 -58 360 -37 430 6 23 7 22 10 -10 2 -19 19 -113 38 -208z
m179 -557 c14 -32 23 -60 21 -62 -4 -5 -47 56 -82 119 l-34 60 36 -29 c22 -18
44 -49 59 -88z"/>
<path d="M4520 9758 c0 -68 36 -126 62 -100 17 17 13 79 -7 102 -25 28 -55 26
-55 -2z"/>
<path d="M3611 7758 c-39 -41 -38 -118 0 -103 21 8 72 93 65 110 -8 22 -42 18
-65 -7z"/>
<path d="M3832 11613 c-5 -10 -12 -44 -15 -75 -5 -52 -4 -58 13 -58 24 0 60
46 60 76 0 60 -38 96 -58 57z"/>
<path d="M2938 11145 c-72 -42 -98 -71 -83 -95 16 -26 84 -4 179 60 55 37 61
47 46 65 -21 25 -62 16 -142 -30z"/>
<path d="M3103 10878 c-27 -13 -37 -37 -19 -44 44 -17 111 24 76 46 -19 12
-29 12 -57 -2z"/>
<path d="M2141 10298 c-24 -12 -69 -48 -101 -80 -37 -37 -66 -58 -81 -58 -38
0 -104 -38 -136 -78 -59 -74 -66 -97 -60 -204 5 -95 6 -99 49 -160 62 -89 157
-136 314 -154 44 -6 55 -3 73 15 11 11 85 47 163 79 112 46 144 63 146 79 2
12 -4 23 -13 27 -17 6 -143 -16 -188 -33 -36 -14 -54 -14 -41 -1 5 5 43 18 84
29 127 32 158 51 145 90 -9 29 -57 42 -117 31 -28 -6 -59 -10 -69 -10 -28 0
-13 24 29 48 75 42 100 90 60 115 -15 10 -105 -10 -170 -38 -30 -12 -20 9 22
53 31 31 40 48 40 75 0 41 -20 61 -55 55 -36 -7 -31 9 15 51 45 41 48 51 22
74 -25 23 -79 21 -131 -5z"/>
</g>
</svg>
